<svg width="126.000000" height="48.000000" viewBox="0 0 126 48" fill="none" xmlns="http://www.w3.org/2000/svg" xmlns:xlink="http://www.w3.org/1999/xlink">
	<desc>
			Created with Pixso.
	</desc>
	<defs>
		<clipPath id="clip43_111">
			<rect width="22.000000" height="36.000000" transform="translate(0.000000 10.000000)" fill="white" fill-opacity="0"/>
		</clipPath>
	</defs>
	<path d="M84.8487 39.2832C87.9249 39.2832 90.0245 37.6328 90.9327 35.416L91.0987 35.416L91.0987 39L98.8819 39L98.8819 9.9082L91.0499 9.9082L91.0499 20.9922L90.9327 20.9922C90.0831 18.7754 88.0323 16.9004 84.7999 16.9004C80.4737 16.9004 76.2745 20.1914 76.2745 28.0918C76.2745 35.6504 80.1905 39.2832 84.8487 39.2832ZM87.7491 33.2578C85.5909 33.2578 84.3409 31.334 84.3409 28.0918C84.3409 24.8496 85.5909 22.916 87.7491 22.916C89.9073 22.916 91.2159 24.8496 91.2159 28.0918C91.2159 31.2754 89.9073 33.2578 87.7491 33.2578ZM113.261 39.4004C120.361 39.4004 124.57 34.8496 124.57 28.1504C124.57 21.4414 120.361 16.9004 113.261 16.9004C106.162 16.9004 101.953 21.4414 101.953 28.1504C101.953 34.8496 106.162 39.4004 113.261 39.4004ZM113.32 33.5996C111.22 33.5996 109.97 31.5098 109.97 28.0918C109.97 24.6641 111.22 22.584 113.32 22.584C115.302 22.584 116.552 24.6641 116.552 28.0918C116.552 31.5098 115.302 33.5996 113.32 33.5996Z" fill="#5E60CE" fill-opacity="1.000000" fill-rule="evenodd"/>
	<path d="M49 17.1836L45.25 17.1836L45.25 11.959L37.4082 11.959L37.4082 17.1836L34.625 17.1836L34.625 22.8672L37.4082 22.8672L37.4082 32.7207C37.3496 37.291 40.1816 39.6152 45.5918 39.3125C47.3691 39.2148 48.6875 38.8438 49.4004 38.6289L48.2578 33.1211C47.9648 33.1895 47.1934 33.3457 46.7246 33.3457C45.709 33.3457 45.25 32.8965 45.25 31.9785L45.25 22.8672L49 22.8672L49 17.1836ZM62.4659 39.4004C69.5655 39.4004 73.7745 34.8496 73.7745 28.1504C73.7745 21.4414 69.5655 16.9004 62.4659 16.9004C55.3663 16.9004 51.1573 21.4414 51.1573 28.1504C51.1573 34.8496 55.3663 39.4004 62.4659 39.4004ZM62.5245 33.5996C60.4249 33.5996 59.1749 31.5098 59.1749 28.0918C59.1749 24.6641 60.4249 22.584 62.5245 22.584C64.5069 22.584 65.7569 24.6641 65.7569 28.0918C65.7569 31.5098 64.5069 33.5996 62.5245 33.5996Z" fill="#4EA8DE" fill-opacity="1.000000" fill-rule="evenodd"/>
	<rect width="22.000000" height="36.000000" transform="translate(0.000000 10.000000)" fill="#FFFFFF" fill-opacity="0"/>
	<g clip-path="url(#clip43_111)">
		<path d="M11.0214 12.933C14.1471 16.9011 15.8157 21.7944 15.7551 26.8155L15.7551 28.0141L16.7864 28.6416C18.1188 29.4482 19.1125 30.6993 19.5865 32.1669C19.1704 31.8605 18.7351 31.5803 18.2831 31.3279L15.5331 29.7838L15.0389 32.9001C14.9962 33.1755 14.9388 33.4485 14.8671 33.718L7.16138 33.718C7.04675 33.3654 6.95374 33.0129 6.8678 32.6463L6.24475 29.8261L3.70959 31.2362C3.28601 31.473 2.87708 31.7344 2.48499 32.0188C2.96814 30.5682 3.94116 29.3242 5.24207 28.4935L6.22327 27.866L6.22327 26.752C6.24097 21.7513 7.92957 16.8952 11.0286 12.933L11.0214 12.933ZM11.0286 10C10.8678 10.0004 10.7126 10.058 10.5917 10.1622L10.5272 10.2186C6.39771 14.7656 4.10449 20.6454 4.08191 26.745C2.32959 27.8643 1.03235 29.5544 0.417114 31.5197C-0.19812 33.485 -0.0922852 35.6007 0.716064 37.4971C1.56763 35.6455 2.99121 34.1058 4.78381 33.0975C4.9635 33.8642 5.203 34.6161 5.49988 35.3466C5.5376 35.4871 5.62109 35.6115 5.73755 35.7006C5.854 35.7898 5.99695 35.8388 6.14441 35.8402L16.0846 35.8402C16.285 35.8402 16.4856 35.6498 16.5858 35.3537C16.8757 34.6592 17.0778 33.9322 17.1874 33.1892C18.9834 34.1932 20.4082 35.7342 21.2551 37.5887C22.1123 35.7017 22.245 33.5727 21.6287 31.5966C21.0123 29.6206 19.6887 27.9319 17.9036 26.8437C17.9744 20.7082 15.6934 14.7718 11.5155 10.2186C11.4534 10.1501 11.3772 10.0952 11.2921 10.0576C11.2069 10.0199 11.1147 10.0003 11.0214 10L11.0286 10Z" fill="#4EA8DE" fill-opacity="1.000000" fill-rule="nonzero"/>
		<path d="M11.0216 26.1598C10.4716 26.1598 9.93372 25.9995 9.47607 25.699C9.01843 25.3986 8.66138 24.9715 8.44995 24.4716C8.23853 23.9716 8.18201 23.4213 8.28784 22.8898C8.39355 22.3584 8.65674 21.8697 9.04419 21.4853C9.43164 21.1009 9.92603 20.838 10.4651 20.7298C11.004 20.6216 11.5635 20.6729 12.0729 20.8773C12.5823 21.0816 13.0188 21.4298 13.3275 21.8781C13.6361 22.3263 13.8031 22.8545 13.8074 23.396C13.8159 23.7469 13.7542 24.0961 13.6256 24.4235C13.4971 24.751 13.3043 25.0503 13.0582 25.3043C12.8121 25.5583 12.5176 25.7622 12.1915 25.9041C11.8655 26.0461 11.514 26.1234 11.1576 26.1316C11.1125 26.1387 11.0667 26.1387 11.0216 26.1316L11.0216 26.1598Z" fill="#4EA8DE" fill-opacity="1.000000" fill-rule="nonzero"/>
		<path d="M14.8959 37.5958C14.7167 37.5901 14.5382 37.6198 14.3708 37.683C14.2034 37.7462 14.0505 37.8416 13.9211 37.9638C13.7917 38.086 13.6884 38.2323 13.6172 38.3943C13.546 38.5563 13.5084 38.7307 13.5066 38.9072L13.5066 43.067C13.5066 43.4297 13.653 43.7776 13.9136 44.0342C14.1741 44.2907 14.5275 44.4348 14.8959 44.4348C15.2644 44.4348 15.6178 44.2907 15.8783 44.0342C16.1389 43.7776 16.2853 43.4297 16.2853 43.067L16.2853 38.9636C16.291 38.7878 16.2611 38.6125 16.1974 38.4482C16.1335 38.2839 16.0372 38.1337 15.9139 38.0064C15.7906 37.8791 15.6428 37.7772 15.4791 37.7067C15.3153 37.6362 15.139 37.5985 14.9603 37.5958L14.8959 37.5958Z" fill="#5E60CE" fill-opacity="1.000000" fill-rule="nonzero"/>
		<path d="M7.1615 37.5958C6.97925 37.5863 6.797 37.613 6.62549 37.6743C6.45386 37.7356 6.29663 37.8302 6.16296 37.9525C6.02942 38.0749 5.92212 38.2225 5.84766 38.3865C5.77307 38.5505 5.73279 38.7275 5.72925 38.9072L5.72925 43.067C5.72925 43.4297 5.87561 43.7776 6.13623 44.0342C6.39673 44.2907 6.75012 44.4348 7.11853 44.4348C7.48706 44.4348 7.84045 44.2907 8.10095 44.0342C8.36157 43.7776 8.50793 43.4297 8.50793 43.067L8.50793 38.9636C8.51367 38.7878 8.48376 38.6126 8.42004 38.4482C8.3562 38.2839 8.25989 38.1337 8.1366 38.0064C8.01331 37.8791 7.86548 37.7772 7.70178 37.7067C7.53796 37.6362 7.36169 37.5985 7.18298 37.5958L7.1615 37.5958Z" fill="#5E60CE" fill-opacity="1.000000" fill-rule="nonzero"/>
		<path d="M10.9213 37.5958C10.7426 37.592 10.5649 37.623 10.3983 37.6869C10.2318 37.7507 10.0797 37.8463 9.95068 37.9681C9.82166 38.0899 9.71826 38.2355 9.64648 38.3966C9.57458 38.5577 9.53564 38.7312 9.53198 38.9072L9.53198 44.6392C9.53198 45.002 9.67834 45.3499 9.93896 45.6064C10.1995 45.8629 10.5529 46.007 10.9213 46.007C11.2898 46.007 11.6432 45.8629 11.9037 45.6064C12.1643 45.3499 12.3107 45.002 12.3107 44.6392L12.3107 38.9988C12.3164 38.823 12.2865 38.6478 12.2228 38.4835C12.1589 38.3191 12.0626 38.1689 11.9393 38.0416C11.816 37.9143 11.6682 37.8124 11.5045 37.7419C11.3407 37.6714 11.1644 37.6337 10.9857 37.631L10.9213 37.5958Z" fill="#5E60CE" fill-opacity="1.000000" fill-rule="nonzero"/>
	</g>
</svg>
