<svg width="16.000000" height="16.000000" viewBox="0 0 16 16" fill="none" xmlns="http://www.w3.org/2000/svg" xmlns:xlink="http://www.w3.org/1999/xlink">
	<desc>
			Created with Pixso.
	</desc>
	<defs>
		<clipPath id="clip19_50">
			<rect width="16.000000" height="16.000000" fill="white" fill-opacity="0"/>
		</clipPath>
	</defs>
	<rect width="16.000000" height="16.000000" fill="#FFFFFF" fill-opacity="0"/>
	<g clip-path="url(#clip19_50)">
		<path d="M7.98364 1.45158C9.27563 1.45158 10.5386 1.83469 11.6128 2.55244C12.687 3.27019 13.5242 4.29037 14.0186 5.48395C14.5129 6.67754 14.6423 7.99092 14.3904 9.25803C14.1382 10.5251 13.5161 11.689 12.6025 12.6026C11.689 13.5161 10.5251 14.1382 9.25806 14.3903C7.99097 14.6423 6.67749 14.5129 5.48389 14.0185C4.29053 13.5241 3.27026 12.6869 2.55249 11.6127C1.83472 10.5385 1.45166 9.2756 1.45166 7.98367C1.45825 6.25331 2.14868 4.59573 3.37231 3.37218C4.5957 2.14862 6.25342 1.45827 7.98364 1.45158ZM7.98364 0C6.40601 0.00645447 4.86572 0.480179 3.55713 1.36134C2.24854 2.24252 1.23047 3.49164 0.631104 4.95102C0.0317383 6.4104 -0.121582 8.01462 0.190186 9.56114C0.501953 11.1077 1.26489 12.5272 2.38257 13.6404C3.50049 14.7537 4.9231 15.5108 6.4707 15.8163C8.01855 16.1217 9.62207 15.9617 11.0791 15.3564C12.5361 14.7512 13.781 13.7279 14.6567 12.4158C15.5327 11.1036 16 9.56131 16 7.98367C16 6.9325 15.7925 5.89165 15.3892 4.9209C14.9861 3.95013 14.395 3.06857 13.6501 2.32678C12.9053 1.58501 12.0215 0.99762 11.0491 0.598328C10.0767 0.199036 9.03491 -0.00428772 7.98364 0Z" fill="#F2F2F2" fill-opacity="1.000000" fill-rule="nonzero"/>
		<path d="M11.707 7.38126L8.49536 7.38126L8.49536 4.16965L7.41406 4.16965L7.41406 7.38126L4.19873 7.38126L4.19873 8.46268L7.41406 8.46268L7.41406 11.6743L8.49536 11.6743L8.49536 8.46268L11.707 8.46268L11.707 7.38126Z" fill="#F2F2F2" fill-opacity="1.000000" fill-rule="nonzero"/>
	</g>
</svg>
